<svg width="106" height="120" viewBox="0 0 106 120" fill="none" xmlns="http://www.w3.org/2000/svg">
<g clip-path="url(#clip0_1_60)">
<path d="M105.341 60.0107C105.341 53.0343 96.6015 46.4228 83.2031 42.3228C86.2951 28.6704 84.9209 17.8086 78.8658 14.3312C77.4702 13.5155 75.8383 13.1291 74.0562 13.1291V17.916C75.0439 17.916 75.8383 18.1092 76.5039 18.4741C79.4241 20.1484 80.6909 26.5238 79.7032 34.7238C79.467 36.7416 79.0806 38.8668 78.6082 41.0348C74.3997 40.0045 69.8047 39.2102 64.9736 38.695C62.0749 34.7238 59.0689 31.1175 56.0413 27.962C63.0411 21.4579 69.6115 17.8945 74.0776 17.8945V13.1076C68.1729 13.1076 60.4431 17.3149 52.6273 24.6134C44.8116 17.3579 37.0818 13.1935 31.177 13.1935V17.9804C35.6217 17.9804 42.2135 21.5223 49.2133 27.9835C46.2073 31.139 43.2012 34.7238 40.3455 38.695C35.4929 39.2102 30.8979 40.0045 26.6894 41.0563C26.1956 38.9097 25.8305 36.8275 25.5729 34.8312C24.5637 26.6312 25.8091 20.2558 28.7078 18.56C29.3519 18.1736 30.1893 18.0018 31.177 18.0018V13.2149C29.3734 13.2149 27.7415 13.6013 26.3244 14.417C20.2908 17.8945 18.9381 28.7348 22.0515 42.3442C8.69607 46.4657 0 53.0558 0 60.0107C0 66.9872 8.73901 73.5987 22.1374 77.6987C19.0455 91.351 20.4197 102.213 26.4747 105.69C27.8704 106.506 29.5022 106.892 31.3059 106.892C37.2106 106.892 44.9404 102.685 52.7562 95.3866C60.5719 102.642 68.3017 106.807 74.2065 106.807C76.0101 106.807 77.642 106.42 79.0591 105.604C85.0927 102.127 86.4454 91.2866 83.332 77.6772C96.6445 73.5772 105.341 66.9657 105.341 60.0107ZM77.3843 45.6929C76.5898 48.462 75.6021 51.317 74.4856 54.172C73.6052 52.4547 72.682 50.7374 71.6728 49.0202C70.6851 47.3029 69.633 45.6285 68.5809 43.9971C71.6299 44.4479 74.5715 45.006 77.3843 45.6929ZM67.5502 68.5542C65.8754 71.4521 64.1577 74.1997 62.3755 76.7542C59.1762 77.0332 55.934 77.1835 52.6703 77.1835C49.428 77.1835 46.1858 77.0332 43.008 76.7756C41.2258 74.2212 39.4866 71.495 37.8118 68.6186C36.1799 65.8065 34.6984 62.9516 33.3457 60.0751C34.6769 57.1987 36.1799 54.3222 37.7903 51.5102C39.4651 48.6123 41.1829 45.8647 42.965 43.3102C46.1643 43.0312 49.4066 42.8809 52.6703 42.8809C55.9125 42.8809 59.1547 43.0312 62.3326 43.2887C64.1147 45.8432 65.8539 48.5694 67.5287 51.4458C69.1606 54.2579 70.6421 57.1128 71.9949 59.9893C70.6421 62.8657 69.1606 65.7421 67.5502 68.5542ZM74.4856 65.7636C75.6451 68.64 76.6328 71.5165 77.4487 74.3071C74.6359 74.994 71.6728 75.5736 68.6023 76.0243C69.6544 74.3715 70.7066 72.6756 71.6943 70.9369C72.682 69.2196 73.6052 67.4809 74.4856 65.7636ZM52.7132 88.6678C50.7163 86.6071 48.7195 84.3102 46.7441 81.7987C48.6765 81.8845 50.6519 81.9489 52.6488 81.9489C54.6671 81.9489 56.664 81.906 58.618 81.7987C56.6855 84.3102 54.6886 86.6071 52.7132 88.6678ZM36.7382 76.0243C33.6892 75.5736 30.7476 75.0154 27.9348 74.3285C28.7292 71.5594 29.7169 68.7044 30.8335 65.8495C31.7138 67.5667 32.6371 69.284 33.6463 71.0013C34.6554 72.7186 35.6861 74.3929 36.7382 76.0243ZM52.6059 31.3537C54.6027 33.4144 56.5996 35.7113 58.575 38.2228C56.6425 38.1369 54.6671 38.0725 52.6703 38.0725C50.6519 38.0725 48.6551 38.1154 46.7011 38.2228C48.6336 35.7113 50.6305 33.4144 52.6059 31.3537ZM36.7167 43.9971C35.6646 45.65 34.6125 47.3458 33.6248 49.0846C32.6371 50.8018 31.7138 52.5191 30.8335 54.2364C29.674 51.3599 28.6863 48.4835 27.8704 45.6929C30.6832 45.0275 33.6463 44.4479 36.7167 43.9971ZM17.2848 70.8725C9.68377 67.6311 4.76673 63.3809 4.76673 60.0107C4.76673 56.6406 9.68377 52.3688 17.2848 49.149C19.1314 48.3547 21.1497 47.6463 23.2325 46.9809C24.4564 51.1882 26.0667 55.5673 28.0636 60.0537C26.0882 64.5186 24.4993 68.8762 23.2969 73.062C21.1712 72.3966 19.1528 71.6667 17.2848 70.8725ZM28.8366 101.547C25.9164 99.873 24.6496 93.4976 25.6373 85.2976C25.8735 83.2798 26.26 81.1547 26.7324 78.9866C30.9408 80.017 35.5358 80.8112 40.3669 81.3264C43.2656 85.2976 46.2717 88.9039 49.2992 92.0594C42.2994 98.5636 35.729 102.127 31.2629 102.127C30.2967 102.105 29.4808 101.912 28.8366 101.547ZM79.7677 85.1903C80.7768 93.3903 79.5315 99.7657 76.6328 101.461C75.9886 101.848 75.1512 102.02 74.1635 102.02C69.7189 102.02 63.127 98.4777 56.1272 92.0165C59.1333 88.861 62.1393 85.2762 64.9951 81.305C69.8477 80.7898 74.4426 79.9955 78.6511 78.9437C79.145 81.1118 79.5315 83.194 79.7677 85.1903ZM88.0343 70.8725C86.1877 71.6667 84.1694 72.3751 82.0866 73.0406C80.8627 68.8332 79.2523 64.4542 77.2555 59.9678C79.2309 55.5029 80.8198 51.1453 82.0222 46.9594C84.1479 47.6249 86.1662 48.3547 88.0558 49.149C95.6568 52.3903 100.574 56.6406 100.574 60.0107C100.552 63.3809 95.6353 67.6526 88.0343 70.8725Z" fill="#61DAFB"/>
<path d="M52.6488 69.8207C58.0681 69.8207 62.4614 65.4286 62.4614 60.0107C62.4614 54.5928 58.0681 50.2008 52.6488 50.2008C47.2294 50.2008 42.8362 54.5928 42.8362 60.0107C42.8362 65.4286 47.2294 69.8207 52.6488 69.8207Z" fill="#61DAFB"/>
</g>
<defs>
<clipPath id="clip0_1_60">
<rect width="105.341" height="120" fill="white"/>
</clipPath>
</defs>
</svg>
